<svg xmlns="http://www.w3.org/2000/svg" viewBox="0 0 239.38 200"><defs><style>.cls-1{fill:#a37d76;}</style></defs><title>アセット 2</title><g id="レイヤー_2" data-name="レイヤー 2"><g id="レイヤー_1-2" data-name="レイヤー 1"><path class="cls-1" d="M129.85,199.58c-3.7.07-6.61.42-10.58.42a100.9,100.9,0,0,1-14.58-.85c-1.71-.24-2.81-.42-5.82-.8-4.25-.52-4.72-.47-7.36-.85A69.62,69.62,0,0,1,83.65,196a63.32,63.32,0,0,1-7.3-2.38,65.49,65.49,0,0,1-9.59-4.47A47.79,47.79,0,0,1,59.15,184c-1.32-1.11-2.31-2.08-4.2-3.94a47,47,0,0,1-4.34-4.56,49.27,49.27,0,0,1-3.39-5.21,8.3,8.3,0,0,1-1.65-3.86c-.3-1.47-1.28-2.64-1.47-4.16-.11-.79-.19-1.63-.24-2.41-.16-2.29-.47-4.58-.71-6.84a46.66,46.66,0,0,1-.13-6.7c.2-3.77.9-6.46,2.22-11.55.76-2.91,1.1-5,2-6.83a40.41,40.41,0,0,0,2.11-5.49,31.67,31.67,0,0,1,1.54-2.89c.64-1.39,1.56-2.62,2.14-4a9.57,9.57,0,0,1,1.61-2.7c1.88-2.11,3.25-4.6,5.17-6.68,2.72-3,5.51-5.83,8.49-8.54a77.67,77.67,0,0,1,6.87-5.82c1.38-1,2.58-2.2,4-3.17A25,25,0,0,1,82.43,87c2.73-1.36,5.42-2.82,8.2-4.09a56,56,0,0,1,13.09-4.45c4.23-.77,8.47-1.73,12.8-1.67s8.77-.12,13.13.37a74.48,74.48,0,0,1,10.29,1.87,56.27,56.27,0,0,1,15.45,6c1.31.79,2.78,1.34,4.05,2.19,1,.7,2.12,1.33,3.16,2a79.62,79.62,0,0,1,11.75,9.53c1.31,1.26,2.44,2.7,3.76,3.95a33.72,33.72,0,0,1,4,5,14.16,14.16,0,0,0,1,1.31,26,26,0,0,1,4.45,6.74c.75,1.65,1.8,3.26,2.71,4.88a26.41,26.41,0,0,1,2.7,6.93,12.77,12.77,0,0,0,1.61,4.3c.84,1.27.86,2.84,1.16,4.3.4,2,.71,3.94,1.14,5.9a14.88,14.88,0,0,1,.19,4.11,49.21,49.21,0,0,0-.11,5.43,28.86,28.86,0,0,1-.63,5.48,44.57,44.57,0,0,1-.85,5c-.25,1-.66,1.92-1,2.88a59.06,59.06,0,0,1-3.25,7.32,9.37,9.37,0,0,1-1.77,2.5c-2.21,2.13-3.61,5-6.27,6.74a30.2,30.2,0,0,0-3.56,3.25c-2.15,2-4.75,3.15-7.23,4.53A77.25,77.25,0,0,1,161,194.18c-2.05.74-4.24,1.19-6.38,1.74a126.1,126.1,0,0,1-12.78,2.54A93.63,93.63,0,0,1,129.85,199.58Z"/><path class="cls-1" d="M152,0a31.54,31.54,0,0,1,9.95,1.59C166.43,3.09,169.82,6,173,9.26s4.87,7.32,6,11.67a28.2,28.2,0,0,1,1,7.38,22.78,22.78,0,0,1-.28,6,46.66,46.66,0,0,0-.74,4.69,36.71,36.71,0,0,1-2.46,7.49,32.18,32.18,0,0,1-5.54,9.16c-2.28,2.69-4.53,5.51-7.52,7.49-4.29,2.84-8.76,5.44-14,5.91a26.33,26.33,0,0,1-10.12-.9,24.47,24.47,0,0,1-6.67-3.2,15.13,15.13,0,0,1-5.34-5.75c-1.43-2.88-2.89-4.84-3.23-5.61a33.91,33.91,0,0,1-1.9-6c-.51-2-.84-4.81-1.38-8.43a13.76,13.76,0,0,1,0-4.79c.48-2.34.54-4.73,1-7.09.28-1.5.7-3,1-4.46.52-2.94,2.09-5.41,3.5-7.9s3.48-4.36,5.36-6.41a26,26,0,0,1,7.65-5.31A30.61,30.61,0,0,1,146.93.49,18.73,18.73,0,0,1,152,0Z"/><path class="cls-1" d="M75.3,1.26c4,.12,7.56,0,11,.94a30.28,30.28,0,0,1,5.48,2.23,31.09,31.09,0,0,1,9.56,7.29,57,57,0,0,1,4.38,6.44,16.33,16.33,0,0,1,2,4.67c2.19,6.4,1.46,12.22.93,16.31a44,44,0,0,1-1.81,8.13,38.36,38.36,0,0,1-1.51,3.92,35.25,35.25,0,0,1-2,3.84A44.69,44.69,0,0,1,100.75,59c-.42.5-1.1,1.26-2,2.14a25.21,25.21,0,0,1-6.55,4.93,17.29,17.29,0,0,1-3,1.24c-1.62.48-3.57.77-8,.38-4.12-.37-6.18-.55-9-1.47a29.08,29.08,0,0,1-8.32-4.41,32.82,32.82,0,0,1-7.21-7.18,40.23,40.23,0,0,1-3.13-5.3A37.27,37.27,0,0,1,49.48,34a23.88,23.88,0,0,1,.1-5.92c.68-3.93,1.13-7.93,3.54-11.41,1.08-1.54,1.74-3.42,2.94-4.91a26.38,26.38,0,0,1,5.45-5.36A36.13,36.13,0,0,1,67.75,3,23.27,23.27,0,0,1,75.3,1.26Z"/><path class="cls-1" d="M221.83,51a51.18,51.18,0,0,1,5,3.07c3.42,1.95,5.84,4.86,8,8.07a29.66,29.66,0,0,1,3.62,7.78,25.61,25.61,0,0,1,.86,8.05,39,39,0,0,1-.75,4.85,36.65,36.65,0,0,1-2.07,6.9,21.42,21.42,0,0,1-4,6.62c-1.58,1.87-3.43,3.48-5,5.32a23,23,0,0,1-7.77,5.52c-3.24,1.59-6.61,2.93-10.43,2.91a33.4,33.4,0,0,1-10.16-1.35,22,22,0,0,1-8-4.77,30.76,30.76,0,0,1-5.94-7.81,35,35,0,0,1-2.41-5.21,40.6,40.6,0,0,1-1.14-4,31.76,31.76,0,0,1-1.1-5.07,32.35,32.35,0,0,1-.08-5.4,28.59,28.59,0,0,1,.8-6.34,25.46,25.46,0,0,1,1.26-3.67,17.6,17.6,0,0,1,2.81-5.38c2-2.42,4-5,6.77-6.7A39.28,39.28,0,0,1,198,50.91C198.66,50.63,210.48,45.62,221.83,51Z"/><path class="cls-1" d="M55.41,88.07a37.38,37.38,0,0,1-3.85,10.81A25.42,25.42,0,0,1,47.83,104a16.87,16.87,0,0,1-5.51,4c-1.57.75-3.1,1.59-4.72,2.22a20.39,20.39,0,0,1-6.74,1c-3.26.13-6.25-1-9.36-1.53-1.75-.3-3.12-1.48-4.73-2.1-2.43-.93-4.24-2.74-6.24-4.33s-3.64-3.91-5.45-5.84a16.7,16.7,0,0,1-2.57-3.9A24.12,24.12,0,0,1,.17,84.36a30.51,30.51,0,0,1-.12-4.85,28,28,0,0,1,2.18-9A18.18,18.18,0,0,1,5.38,65a45.08,45.08,0,0,1,6.22-5.55c3.08-2.4,6.67-3.63,10.29-4.77a23.16,23.16,0,0,1,8.23-.72,35.11,35.11,0,0,1,8,1.55,29.7,29.7,0,0,1,6.72,3.29c2.27,1.35,4,3.25,6,4.89a11.71,11.71,0,0,1,2.32,3.08,20.48,20.48,0,0,1,2.59,7.18A36.37,36.37,0,0,1,55.41,88.07Z"/></g></g></svg>